<svg xmlns="http://www.w3.org/2000/svg" xmlns:xlink="http://www.w3.org/1999/xlink" aria-hidden="true" focusable="false" width="27.5" height="30" style="-ms-transform: rotate(360deg); -webkit-transform: rotate(360deg); transform: rotate(360deg);" preserveAspectRatio="xMidYMid meet" viewBox="0 100 556 290"><path d="M400,170.42l43.79-38.51Q458.46,113,461.31,71.29l-.55-6.5a43.12,43.12,0,0,0-3.42-13.51q-8.79-20.22-39.18-34Q394.54,1.25,333,0q-51,4.4-133,36.05a504.74,504.74,0,0,1-51.25,32.39L149,71.8a13.43,13.43,0,0,0,5.08-2q3.33-.28,3.6,2.85l3.42-1.87,1.66-.15,0,.36.11,1.21q.09,1.14-7.49,7.13-8.89,7-28.37,20.78l1.93,3-1.66.14-3.7-1.26q.13,1.58-5.08,2l.15,1.79,4,4.4a13.48,13.48,0,0,1-5.36-1.12q-11.64,1-22.94,16.86l1.93,3q9.75-9,11.41-9.11l.33,3.75.1,1.18a7.49,7.49,0,0,0-2,.53,27,27,0,0,0-3.12,1.49l.7,1,2.71,4.07.71,1.07q2.46-2.64,5-5.13c1.6-1.55,3.22-3.06,4.88-4.53,1.05-.92,2.1-1.82,3.17-2.71s2.38-1.93,3.59-2.86l1.73-1.31q3.72-2.77,7.63-5.29l.07,0,.1,0q7,1.86,7.2,4.3l3.57-.31q38.66-28.59,76.55-41.33L221,77.1a66.4,66.4,0,0,1-6.43,8.54c-1.34,1.41-2.4,2.15-3.17,2.22a11.65,11.65,0,0,0,2.46,6.33q.55,6.5-34.36,86.89Q100.18,368,46.19,457.43a11.72,11.72,0,0,0,2.08,4.78c1.86-.44,3.56-.88,5.13-1.33,6-1.68,9.91-3.38,11.78-5.09l1.9-.16.29,3.36,3.32-.29,3.42-1.88a1.14,1.14,0,0,0,.29.68c.47.55,1.53.75,3.17.61l.05.58.24,2.78a12.05,12.05,0,0,1-.49,4,46.77,46.77,0,0,1-5.14,11.11q-5.45,6.12-11.64,25.83l.13,1.56,3.33-.28c2-2.26,3.94-4.5,5.82-6.74Q87.2,476.29,96.8,456.45q8.3-2.44,16.06-4.86,15.51-4.84,29-9.62l3.53-1.27q28.65-10.38,47.57-20.51,33.48-2.88,50.87-17.47l-.15-1.79-8.4,2.53-1.89.16-.16-1.79q24.56-3.69,34-11.05,47.78-36.82,72.27-52.25,75.43-55.36,71.18-106.34a1.09,1.09,0,0,0,0-.18q-.42-4.95-28.26-36.06-2.38-2.67-5-5.53Q376.76,183.49,400,170.42ZM323.09,290.53,279,325.47q-49.11,32.2-52.91,32.53-67.24,37-90.74,43.41a39.41,39.41,0,0,1-6.57,1.3l-1.9.16q2.36-8.78,69.73-142.72,29.67-2.56,93.51-27.69l10.45-.9q32.28-2.77,48.17,12.32l.4,4.6.16,1.89Q337.4,284.57,323.09,290.53Zm27.62-145.64Q343.78,153.16,313,173q-10.21.89-75.9,29.55a13.09,13.09,0,0,0-2.64-.91,14.23,14.23,0,0,0-4.4-.29l-.27-3.13q-.81-9.41,8.48-23.74,5.09-27.06,11.22-30.75l36.45-82.1q-.64-7.62,23.39-11.72l5.22-.45.4,4.7q23.61-3.6,29.3-4.1Q385,46.51,389.1,65a20.12,20.12,0,0,1,.39,2.54l1.68-.14,1.64-.15L392.1,59l3.56-.31q11.14,6.12,13.24,14.55a16.56,16.56,0,0,1,.43,2.55q.6,6.95-7.38,17.1c-2.21.19-3.46-1.35-3.74-4.64l-3.57.31-.81,10q-22,33-32,33.89Q352.86,144.7,350.71,144.89Z" fill="#fbe10f" /><rect x="0" y="0" width="512" height="200" fill="rgba(0,0,0,0)" /></svg>
